<?xml version="1.0" standalone="no"?>
<!DOCTYPE svg PUBLIC "-//W3C//DTD SVG 20010904//EN"
 "http://www.w3.org/TR/2001/REC-SVG-20010904/DTD/svg10.dtd">
<svg version="1.0" xmlns="http://www.w3.org/2000/svg"
 width="150.000000pt" height="162.000000pt" viewBox="0 0 150.000000 162.000000"
 preserveAspectRatio="xMidYMid meet">

<g transform="translate(0.000000,162.000000) scale(0.100000,-0.100000)"
fill="#000000" stroke="none">
<path d="M574 1581 c-39 -10 -111 -37 -160 -61 -73 -36 -105 -60 -180 -135
-78 -77 -98 -105 -138 -186 -55 -113 -76 -202 -76 -324 0 -122 21 -211 76
-324 40 -81 60 -109 138 -186 77 -77 105 -98 186 -137 115 -56 209 -78 330
-78 121 0 215 22 330 78 81 39 109 60 186 137 78 77 98 105 138 186 55 113 76
202 76 324 0 122 -21 211 -76 324 -40 81 -60 109 -138 186 -77 77 -105 98
-186 137 -52 25 -127 53 -167 62 -94 21 -248 20 -339 -3z m-174 -438 c0 -15 1
-15 18 0 26 24 62 22 62 -3 0 -23 -3 -24 -31 -7 -17 10 -22 9 -35 -7 -17 -24
-19 -127 -2 -144 9 -9 3 -12 -27 -12 -30 0 -36 3 -27 12 7 7 12 41 12 85 0 58
-3 74 -17 82 -15 9 -12 10 15 11 23 0 32 -4 32 -17z m237 -5 c33 -31 33 -109
-2 -143 -55 -56 -135 -15 -135 70 0 35 6 52 25 70 31 32 80 33 112 3z m200 0
c33 -31 33 -109 -2 -143 -55 -56 -135 -15 -135 70 0 35 6 52 25 70 31 32 80
33 112 3z m113 5 c0 -15 1 -15 18 0 23 21 56 22 72 2 11 -13 15 -13 33 0 30
21 64 19 77 -4 5 -11 10 -48 10 -83 0 -37 5 -69 12 -76 9 -9 4 -12 -25 -12
-34 0 -37 2 -27 19 11 22 13 83 4 119 -8 28 -49 30 -64 3 -16 -30 -12 -107 6
-125 14 -15 12 -16 -27 -16 -34 0 -40 3 -31 12 7 7 12 39 12 75 0 68 -15 87
-49 66 -20 -13 -28 -118 -10 -139 10 -12 4 -14 -32 -13 -24 0 -38 3 -31 6 16
6 17 154 0 171 -9 9 -5 12 20 12 23 0 32 -5 32 -17z m-410 -298 c0 -40 -15
-47 -24 -10 -5 18 -13 25 -31 25 l-25 0 0 -110 c0 -93 3 -110 18 -119 13 -8 6
-10 -32 -11 -39 0 -47 3 -38 12 8 8 12 49 12 120 0 102 -1 108 -20 108 -13 0
-24 -10 -30 -25 -14 -36 -30 -31 -30 10 l0 35 100 0 100 0 0 -35z m80 15 c0
-11 -7 -20 -15 -20 -8 0 -15 9 -15 20 0 11 7 20 15 20 8 0 15 -9 15 -20z m0
-126 c0 -41 5 -84 10 -95 10 -17 7 -19 -27 -19 -29 0 -34 3 -25 12 16 16 16
150 0 166 -9 9 -6 12 15 12 27 0 27 0 27 -76z m106 61 c-3 -8 -2 -15 3 -15 5
0 14 7 21 15 16 19 54 19 70 0 11 -13 15 -13 33 0 53 37 87 2 87 -90 0 -34 5
-66 12 -73 9 -9 2 -12 -32 -11 -25 0 -39 3 -32 6 8 3 12 28 12 74 0 74 -14 94
-49 72 -20 -13 -28 -118 -10 -139 9 -12 5 -14 -27 -14 -30 0 -35 3 -26 12 14
14 16 116 3 136 -4 8 -19 12 -32 10 -22 -3 -24 -8 -27 -72 -2 -49 1 -72 10
-77 8 -5 -4 -9 -32 -9 -34 0 -41 3 -32 12 16 16 16 150 0 166 -9 9 -5 12 21
12 25 0 32 -4 27 -15z m388 -4 c9 -10 18 -31 19 -47 2 -29 1 -29 -55 -32 -59
-3 -66 -9 -48 -43 12 -21 59 -26 78 -7 6 6 15 8 19 4 13 -13 -37 -46 -68 -46
-45 0 -69 31 -69 90 0 41 5 56 25 75 29 30 75 33 99 6z"/>
<path d="M552 1128 c-17 -17 -15 -113 3 -128 37 -30 80 19 69 80 -3 19 -10 41
-16 48 -13 15 -40 16 -56 0z"/>
<path d="M752 1128 c-17 -17 -15 -113 3 -128 37 -30 80 19 69 80 -3 19 -10 41
-16 48 -13 15 -40 16 -56 0z"/>
<path d="M1032 765 c-16 -36 -17 -35 28 -35 32 0 40 4 40 18 0 44 -50 56 -68
17z"/>
</g>
</svg>
